<?xml version="1.0" encoding="UTF-8"?>
<!DOCTYPE svg PUBLIC "-//W3C//DTD SVG 1.1//EN" "http://www.w3.org/Graphics/SVG/1.1/DTD/svg11.dtd">
<!-- Creator: CorelDRAW X7 -->
<svg xmlns="http://www.w3.org/2000/svg" xml:space="preserve" width="1108.79mm" height="1108.79mm" version="1.1" style="shape-rendering:geometricPrecision; text-rendering:geometricPrecision; image-rendering:optimizeQuality; fill-rule:evenodd; clip-rule:evenodd"
viewBox="0 0 73147 73147"
 xmlns:xlink="http://www.w3.org/1999/xlink">
 <defs>
  <style type="text/css">
   <![CDATA[
    .fil0 {fill:white}
   ]]>
  </style>
 </defs>
 <g id="Слой_x0020_1">
  <metadata id="CorelCorpID_0Corel-Layer"/>
  <g id="_838109552">
   <g>
    <path class="fil0" d="M36574 0c-20200,0 -36574,16374 -36574,36574 0,20199 16374,36573 36574,36573 20199,0 36573,-16374 36573,-36573 0,-20200 -16374,-36574 -36573,-36574zm13952 18625l-5058 3c-3967,0 -4734,1885 -4734,4650l0 6099 9460 0 -5 9552 -9454 0 0 24513 -9867 0 0 -24513 -8247 0 0 -9552 8247 0 0 -7045c0,-8175 4995,-12627 12288,-12627l7371 11 0 8909 -1 0z"/>
   </g>
   <g>
   </g>
   <g>
   </g>
   <g>
   </g>
   <g>
   </g>
   <g>
   </g>
   <g>
   </g>
   <g>
   </g>
   <g>
   </g>
   <g>
   </g>
   <g>
   </g>
   <g>
   </g>
   <g>
   </g>
   <g>
   </g>
   <g>
   </g>
   <g>
   </g>
  </g>
 </g>
</svg>
